<svg width="17" height="16" viewBox="0 0 17 16" fill="none" xmlns="http://www.w3.org/2000/svg">
<path fill-rule="evenodd" clip-rule="evenodd" d="M4.59556 2.32181C4.93245 1.54776 5.73183 0.25 7.33333 0.25C9.07709 0.25 9.86875 1.77993 10.1613 2.54231C10.3834 3.12112 10.4167 3.71629 10.4167 4.21992V10.8333C10.4167 11.8919 9.55855 12.75 8.5 12.75C7.44145 12.75 6.58333 11.8919 6.58333 10.8333V4C6.58333 3.58579 6.91912 3.25 7.33333 3.25C7.74755 3.25 8.08333 3.58579 8.08333 4V10.8333C8.08333 11.0635 8.26988 11.25 8.5 11.25C8.73012 11.25 8.91667 11.0635 8.91667 10.8333V4.21992C8.91667 3.76571 8.88192 3.39516 8.76086 3.07969C8.48549 2.36206 8.03312 1.75 7.33333 1.75C6.69368 1.75 6.26095 2.25409 5.97094 2.92042C5.79113 3.33355 5.75 3.82395 5.75 4.42534V11.5C5.75 13.0188 6.98122 14.25 8.5 14.25C10.0188 14.25 11.25 13.0188 11.25 11.5V4C11.25 3.58579 11.5858 3.25 12 3.25C12.4142 3.25 12.75 3.58579 12.75 4V11.5C12.75 13.8472 10.8472 15.75 8.5 15.75C6.15279 15.75 4.25 13.8472 4.25 11.5V4.42534C4.25 3.79558 4.28405 3.03755 4.59556 2.32181Z" fill="#1A1A1A"/>
</svg>
