<svg width="10" height="11" viewBox="0 0 10 11" fill="none" xmlns="http://www.w3.org/2000/svg">
<path fill-rule="evenodd" clip-rule="evenodd" d="M9.20418 1.30806C9.44825 1.55214 9.44825 1.94786 9.20418 2.19194L1.69117 9.70495C1.44709 9.94903 1.05136 9.94903 0.807283 9.70495C0.563205 9.46087 0.563205 9.06515 0.807283 8.82107L8.32029 1.30806C8.56437 1.06398 8.9601 1.06398 9.20418 1.30806Z" fill="#1A1A1A"/>
<path fill-rule="evenodd" clip-rule="evenodd" d="M9.20415 9.70494C8.96007 9.94902 8.56434 9.94902 8.32027 9.70494L0.807255 2.19193C0.563178 1.94785 0.563177 1.55212 0.807255 1.30805C1.05133 1.06397 1.44706 1.06397 1.69114 1.30805L9.20415 8.82106C9.44823 9.06513 9.44823 9.46086 9.20415 9.70494Z" fill="#1A1A1A"/>
</svg>
