<svg width="16" height="16" viewBox="0 0 16 16" fill="none" xmlns="http://www.w3.org/2000/svg">
<g id="close">
<path id="Line 15 (Stroke)" fill-rule="evenodd" clip-rule="evenodd" d="M14.7267 1.29289C15.1173 1.68342 15.1173 2.31658 14.7267 2.70711L2.70592 14.7279C2.31539 15.1184 1.68223 15.1184 1.2917 14.7279C0.901178 14.3374 0.901179 13.7042 1.2917 13.3137L13.3125 1.29289C13.703 0.902369 14.3362 0.902369 14.7267 1.29289Z" fill="white"/>
<path id="Line 16 (Stroke)" fill-rule="evenodd" clip-rule="evenodd" d="M14.7266 14.728C14.3361 15.1185 13.7029 15.1185 13.3124 14.728L1.29161 2.70714C0.901084 2.31661 0.901084 1.68345 1.29161 1.29292C1.68213 0.9024 2.3153 0.9024 2.70582 1.29292L14.7266 13.3137C15.1172 13.7043 15.1172 14.3374 14.7266 14.728Z" fill="white"/>
</g>
</svg>