<svg class="MuiSvgIcon-root makeStyles-logoText-164" focusable="false" viewBox="0 0 194 20" aria-hidden="true">
<svg width="194px" height="20px" viewBox="0 0 194 20" version="1.1">
<title>Cognigy.AI</title>
<g stroke="none" stroke-width="1" fill="none" fill-rule="evenodd">
<g transform="translate(-108.000000, -272.000000)" fill-rule="nonzero">
<g id="logo_cognigy.ai-(194x20)" transform="translate(108.000000, 272.000000)">
<path d="M149.157109,0.0289066667 L145.077109,0.0289066667 L145.077109,4.23193637 C145.077109,6.35273117 143.997109,7.39384863 141.797109,7.39384863 L136.157109,7.39384863 C133.997109,7.39384863 132.917109,6.35273117 132.917109,4.23193637 L132.877109,0.0289066667 L128.837109,0.0289066667 L128.837109,4.73321515 C128.837109,9.09048448 131.077109,11.2498392 135.597109,11.2498392 L136.945109,11.2498392 L136.945109,19.6289067 L141.025109,19.6289067 L141.025109,11.2498392 L142.357109,11.2498392 C146.877109,11.2498392 149.117109,9.09048448 149.117109,4.73321515 L149.157109,1.18570384 L149.157109,0.0289066667 L149.157109,0.0289066667 Z" id="Path-Copy-2" fill="#cccccc"></path>
<path d="M19.6289063,19.6289063 L19.6289063,15.7031251 L7.09257812,15.7031251 C4.98138021,15.7031251 3.92578125,14.651888 3.92578125,12.5494141 L3.92578125,12.5494141 L3.92578125,7.06640625 C3.92578125,4.97265625 4.97701823,3.92578125 7.07949219,3.92578125 L7.07949219,3.92578125 L19.6289063,3.92578125 L19.6289063,8.8817842e-15 L6.54296875,8.8817842e-15 C2.18098959,8.8817842e-15 -2.27373675e-13,2.18098959 -2.27373675e-13,6.54296875 L-2.27373675e-13,6.54296875 L-2.27373675e-13,13.0859375 C-2.27373675e-13,17.4479167 2.18098959,19.6289063 6.54296875,19.6289063 L6.54296875,19.6289063 L19.6289063,19.6289063 Z M30.7376563,19.6419921 L37.2806251,19.6289063 C41.6426041,19.6201823 43.8235937,17.4391927 43.8235937,13.0859375 L43.8235937,13.0859375 L43.8235937,6.54296875 C43.8235937,2.18098959 41.6426041,8.8817842e-15 37.2806251,8.8817842e-15 L37.2806251,8.8817842e-15 L30.7376563,8.8817842e-15 C26.3756771,8.8817842e-15 24.1946875,2.18098959 24.1946875,6.54296875 L24.1946875,6.54296875 L24.1946875,13.0859375 C24.1946875,17.4479167 26.3756771,19.6289063 30.7376563,19.6289063 L30.7376563,19.6289063 L30.7376563,19.6419921 Z M36.6263281,15.7031251 L31.3919532,15.7031251 C29.2109636,15.7031251 28.1204688,14.6126303 28.1204688,12.4316406 L28.1204688,12.4316406 L28.1204688,7.19726563 C28.1204688,5.01627604 28.9928645,3.92578125 30.7376563,3.92578125 L30.7376563,3.92578125 L36.6263281,3.92578125 C38.8073177,3.92578125 39.8978125,5.01627604 39.8978125,7.19726563 L39.8978125,7.19726563 L39.8978125,12.4316406 C39.8978125,14.6126303 38.8073177,15.7031251 36.6263281,15.7031251 L36.6263281,15.7031251 Z M68.0182813,19.6289063 L68.0182813,9.16015625 L64.0925,9.16015625 L64.0925,15.7031251 L55.4819532,15.7031251 C53.3707552,15.7031251 52.3151563,14.651888 52.3151563,12.5494141 L52.3151563,12.5494141 L52.3151563,7.06640625 C52.3151563,4.97265625 53.3663932,3.92578125 55.4688672,3.92578125 L55.4688672,3.92578125 L68.0182813,3.92578125 L68.0182813,8.8817842e-15 L54.9323437,8.8817842e-15 C50.5703647,8.8817842e-15 48.3893751,2.18098959 48.3893751,6.54296875 L48.3893751,6.54296875 L48.3893751,13.0859375 C48.3893751,17.4479167 50.5703647,19.6289063 54.9323437,19.6289063 L54.9323437,19.6289063 L68.0182813,19.6289063 Z M76.5098437,19.6289063 L76.5098437,5.95410156 L88.2217579,19.6289063 L92.2129688,19.6289063 L92.2129688,8.8817842e-15 L88.2871875,8.8817842e-15 L88.2871875,13.6748047 L76.5883595,8.8817842e-15 L72.5840625,8.8817842e-15 L72.5840625,19.6289063 L76.5098437,19.6289063 Z M100.704531,19.6289063 L100.704531,8.8817842e-15 L96.77875,8.8817842e-15 L96.77875,19.6289063 L100.704531,19.6289063 Z M124.899219,19.6289063 L124.899219,9.16015625 L120.973438,9.16015625 L120.973438,15.7031251 L112.362891,15.7031251 C110.251693,15.7031251 109.196094,14.651888 109.196094,12.5494141 L109.196094,12.5494141 L109.196094,7.06640625 C109.196094,4.97265625 110.247331,3.92578125 112.349805,3.92578125 L112.349805,3.92578125 L124.899219,3.92578125 L124.899219,8.8817842e-15 L111.813281,8.8817842e-15 C107.451302,8.8817842e-15 105.270313,2.18098959 105.270313,6.54296875 L105.270313,6.54296875 L105.270313,13.0859375 C105.270313,17.4479167 107.451302,19.6289063 111.813281,19.6289063 L111.813281,19.6289063 L124.899219,19.6289063 Z" id="Cognig" fill="#cccccc"></path>
<polygon id=".AI-path" fill="#cccccc" points="159.925781 13.7622396 159.925781 9.8364584 156 9.8364584 156 13.7622396"></polygon>
<polygon id=".AI-path" fill="#cccccc" points="169.291953 19.7622396 175.664805 5.06673177 182.050743 19.7622396 186.316757 19.7622396 177.797812 0.133333333 173.531797 0.133333333 165.012852 19.7622396"></polygon>
<polygon id=".AI-path" fill="#cccccc" points="193.303437 19.7622396 193.303437 0.133333333 189.377656 0.133333333 189.377656 19.7622396"></polygon>
</g>
</g>
</g>
</svg>
</svg>
