<svg version="1.1" viewBox="100 0 1125.3 157.22" xmlns="http://www.w3.org/2000/svg">
 <title>COGNIGY.AI</title>
 <path class="cls-1" transform="translate(-12.66 -273.78)" d="M253.88,386.75v23.52H176c-26.05,0-39-12.91-39-39V332.11c0-26.05,12.91-39,39-39h77.92v23.52H179c-12.45,0-18.91,6.22-18.91,18.67v32.51c0,12.45,6.23,18.9,18.91,18.9Z"/>
 <path class="cls-1" transform="translate(-12.66 -273.78)" d="M351.63,386.75c12.92,0,19.6-6.45,19.6-19.6V336c0-12.91-6.45-19.6-19.6-19.6H316.36c-10.6,0-15.44,6.46-15.44,19.6v31.35c0,12.92,6.45,19.6,19.59,19.6l31.12-.23ZM355.55,410h-39c-26,0-39-12.92-39-39V331.88c0-26.05,12.91-39,39-39h39c26.06,0,39,12.91,39,39v39C394.52,396.89,381.37,410,355.55,410Z"/>
 <path class="cls-1" transform="translate(-12.66 -273.78)" d="M535.15,347.56V410H457.22c-26.05,0-39-12.92-39-39V331.88c0-26.05,12.91-39,39-39h77.93v23.51H460.22c-12.45,0-18.9,6.23-18.9,18.68v32.74c0,12.45,6.22,18.9,18.9,18.9h51.41V347.56Z"/>
 <path class="cls-1" transform="translate(-12.66 -273.78)" d="M582,328.42V410H558.43V292.92h24l69.85,81.61V292.92h23.52V410.27h-24L582,328.42Z"/>
 <path class="cls-1" transform="translate(-12.66 -273.78)" d="M722.81,410H699.29V292.92h23.52Z"/>
 <path class="cls-1" transform="translate(-12.66 -273.78)" d="M863.44,347.56V410H785.52c-26.06,0-39-12.92-39-39V331.88c0-26.05,12.91-39,39-39h77.92v23.51H788.51c-12.45,0-18.9,6.23-18.9,18.68v32.74c0,12.45,6.22,18.9,18.9,18.9h51.41V347.56Z"/>
 <path class="cls-1" transform="translate(-12.66 -273.78)" d="M1000,292.85H976.48V318c0,12.68-6.22,18.9-18.9,18.9H925.07c-12.45,0-18.67-6.22-18.67-18.9l-.23-25.13H882.88V321c0,26,12.91,39,39,39h7.75V410h23.52V359.93h7.69c26.05,0,39-12.91,39-39l.23-21.21v-6.91Z"/>
 <path class="cls-1" transform="translate(-12.66 -273.78)" d="m1007.7 410.66v-24h24v24z"/>
 <path class="cls-1" transform="translate(-12.66 -273.78)" d="m1151.4 410.66-39-89.68-38.88 89.68h-26.11l52-119.78h26l52 119.78z"/>
 <path class="cls-1" transform="translate(-12.66 -273.78)" d="m1217.2 410.66h-24v-119.78h24z"/>
</svg>
