<svg width="111" height="82" viewBox="0 0 111 82" fill="none" xmlns="http://www.w3.org/2000/svg">
<g>
<path d="M0.5 27C0.5 18.7157 7.21573 12 15.5 12H95.5C103.784 12 110.5 18.7157 110.5 27V67C110.5 75.2843 103.784 82 95.5 82H0.5V27Z" fill="#F2F2F2"/>
<g>
<path d="M29.4796 18H42.0858C42.9767 18 43.4229 19.0771 42.7929 19.7071L30.2071 32.2929C29.5771 32.9229 30.0233 34 30.9142 34H44.5" stroke="#999999" stroke-width="3" stroke-linecap="round" stroke-linejoin="round"/>
<path d="M52.5 41H62.0858C62.9767 41 63.4229 42.0771 62.7929 42.7071L54.2071 51.2929C53.5771 51.9229 54.0233 53 54.9142 53H64.5" stroke="#999999" stroke-width="3" stroke-linecap="round" stroke-linejoin="round"/>
<path d="M58.5 2H80.0858C80.9767 2 81.4229 3.07714 80.7929 3.70711L60.2071 24.2929C59.5771 24.9229 60.0233 26 60.9142 26H82.5" stroke="#999999" stroke-width="3" stroke-linecap="round" stroke-linejoin="round"/>
</g>
</g>
</svg>
