<svg width="16" height="16" viewBox="0 0 16 16" fill="none" xmlns="http://www.w3.org/2000/svg">
<path d="M3.76923 15V5.73686L8.42308 1.28491C8.58205 1.13152 8.76615 1.03997 8.97538 1.01028C9.18461 0.980585 9.38512 1.01523 9.5769 1.1142C9.76869 1.21316 9.9092 1.35369 9.99842 1.53577C10.0877 1.71787 10.1066 1.9064 10.0553 2.10135L9.19382 5.73686H14.5538C14.9344 5.73686 15.2705 5.87764 15.5623 6.1592C15.8541 6.44075 16 6.76511 16 7.13228V8.37922C16 8.46023 15.9892 8.54704 15.9677 8.63965C15.9461 8.73224 15.922 8.81862 15.8954 8.89879L13.6027 14.1191C13.4881 14.3659 13.2959 14.5744 13.0262 14.7447C12.7564 14.9149 12.475 15 12.1818 15H3.76923ZM4.96921 6.2297V13.8421H12.1846C12.241 13.8421 12.2987 13.8273 12.3577 13.7976C12.4167 13.7679 12.4616 13.7184 12.4923 13.6491L14.8 8.4386V7.13228C14.8 7.063 14.7769 7.00609 14.7308 6.96154C14.6846 6.917 14.6256 6.89473 14.5538 6.89473H7.67692L8.68 2.66395L4.96921 6.2297ZM1.44616 15C1.04847 15 0.708022 14.8634 0.424821 14.5901C0.141607 14.3168 0 13.9883 0 13.6046V7.13228C0 6.74854 0.141607 6.42004 0.424821 6.14677C0.708022 5.87349 1.04847 5.73686 1.44616 5.73686H3.76923V6.89473H1.44616C1.37436 6.89473 1.31538 6.917 1.26922 6.96154C1.22306 7.00609 1.19998 7.063 1.19998 7.13228V13.6046C1.19998 13.6739 1.22306 13.7308 1.26922 13.7753C1.31538 13.8199 1.37436 13.8421 1.44616 13.8421H3.76923V15H1.44616Z" fill="#1A1A1A"/>
</svg>
