<svg width="16" height="16" viewBox="0 0 16 16" fill="none" xmlns="http://www.w3.org/2000/svg">
<path d="M3.76923 1V10.2631L8.42308 14.7151C8.58205 14.8685 8.76615 14.96 8.97538 14.9897C9.18461 15.0194 9.38512 14.9848 9.5769 14.8858C9.76869 14.7868 9.9092 14.6463 9.99842 14.4642C10.0877 14.2821 10.1066 14.0936 10.0553 13.8987L9.19382 10.2631H14.5538C14.9344 10.2631 15.2705 10.1224 15.5623 9.8408C15.8541 9.55925 16 9.23489 16 8.86772V7.62078C16 7.53977 15.9892 7.45296 15.9677 7.36035C15.9461 7.26776 15.922 7.18138 15.8954 7.10121L13.6027 1.88091C13.4881 1.63408 13.2959 1.42556 13.0262 1.25534C12.7564 1.08511 12.475 1 12.1818 1H3.76923ZM4.96921 9.7703V2.15788H12.1846C12.241 2.15788 12.2987 2.17272 12.3577 2.20242C12.4167 2.23211 12.4616 2.2816 12.4923 2.35088L14.8 7.5614V8.86772C14.8 8.937 14.7769 8.99391 14.7308 9.03846C14.6846 9.083 14.6256 9.10527 14.5538 9.10527H7.67692L8.68 13.3361L4.96921 9.7703ZM1.44616 1C1.04847 1 0.708022 1.13664 0.424821 1.40991C0.141607 1.68318 0 2.01168 0 2.39542V8.86772C0 9.25146 0.141607 9.57996 0.424821 9.85323C0.708022 10.1265 1.04847 10.2631 1.44616 10.2631H3.76923V9.10527H1.44616C1.37436 9.10527 1.31538 9.083 1.26922 9.03846C1.22306 8.99391 1.19998 8.937 1.19998 8.86772V2.39542C1.19998 2.32614 1.22306 2.26923 1.26922 2.22469C1.31538 2.18015 1.37436 2.15788 1.44616 2.15788H3.76923V1H1.44616Z" fill="#1A1A1A"/>
</svg>