<svg width="113" height="113" viewBox="0 0 113 113" fill="none" xmlns="http://www.w3.org/2000/svg">
<path fill-rule="evenodd" clip-rule="evenodd" d="M9.375 103.125C6.7875 103.125 4.6875 101.025 4.6875 98.4375V49.2188C4.6875 46.6312 6.7875 44.5312 9.375 44.5312H28.125C30.6 44.5312 32.625 46.4484 32.7984 48.8719C33.9469 48.5859 35.0766 48.1312 36.1219 47.4891C36.4359 47.2969 36.7359 47.0906 37.0312 46.8656C37.7719 46.2938 38.4797 45.6188 39.1359 44.8641C40.0125 43.8609 40.7578 42.7734 41.3672 41.6906C41.7234 41.0625 41.9391 40.6078 42.0141 40.4203L56.6531 7.47187C57.4078 5.77969 59.0859 4.6875 60.9375 4.6875H67.9781C74.4375 4.6875 79.6875 9.94688 79.6875 16.3875C79.6875 16.6687 79.6641 16.95 79.6125 17.2266L75.9281 37.5H95.0578C103.055 37.5 108.844 44.1328 107.658 51.9844C107.559 53.1 107.292 54.9891 106.753 57.6516C105.83 62.2547 104.372 67.7438 102.277 74.1188C102.056 74.7891 101.831 75.4547 101.606 76.1109C99.5906 81.9703 97.4203 87.0891 95.2406 91.4437C93.9516 94.0219 92.9156 95.8313 92.2641 96.8531C90.1125 100.486 85.4906 103.125 81.2578 103.125H9.375ZM32.8125 93.75H81.2578C82.1859 93.75 83.7562 92.8453 84.2016 92.0672L84.3328 91.8563C84.4266 91.7109 84.6422 91.35 84.9703 90.7875C85.5328 89.8078 86.1703 88.6266 86.8594 87.2438C88.8562 83.2547 90.8625 78.5156 92.7422 73.0594C92.9531 72.4453 93.1641 71.8219 93.3703 71.1937C95.3531 65.1656 96.7125 60.0375 97.5656 55.8C97.8562 54.3516 98.0625 53.1234 98.2031 52.1156C98.2781 51.5484 98.3156 51.2062 98.325 51.0844L98.3766 50.6578C98.7422 48.4641 97.3734 46.875 95.0578 46.875H70.3125C67.3875 46.875 65.1797 44.2266 65.7 41.3484L70.2937 16.0828C70.1391 14.9531 69.15 14.0625 67.9781 14.0625H63.9844L50.6672 44.0297C49.8937 45.9 48.4453 48.4547 46.2047 51.0281C45.15 52.2328 43.9969 53.3344 42.7406 54.3C42.1875 54.7219 41.6203 55.1156 41.0344 55.4766C38.7938 56.85 36.4219 57.7219 34.05 58.2C33.6141 58.2891 33.2016 58.3594 32.8125 58.4156V93.75ZM14.0625 93.75H23.4375V53.9062H14.0625V93.75Z" fill="#595A5C"/>
<mask id="mask0_1835_366" style="mask-type:luminance" maskUnits="userSpaceOnUse" x="4" y="4" width="104" height="100">
<path fill-rule="evenodd" clip-rule="evenodd" d="M9.375 103.125C6.7875 103.125 4.6875 101.025 4.6875 98.4375V49.2188C4.6875 46.6312 6.7875 44.5312 9.375 44.5312H28.125C30.6 44.5312 32.625 46.4484 32.7984 48.8719C33.9469 48.5859 35.0766 48.1312 36.1219 47.4891C36.4359 47.2969 36.7359 47.0906 37.0312 46.8656C37.7719 46.2938 38.4797 45.6188 39.1359 44.8641C40.0125 43.8609 40.7578 42.7734 41.3672 41.6906C41.7234 41.0625 41.9391 40.6078 42.0141 40.4203L56.6531 7.47187C57.4078 5.77969 59.0859 4.6875 60.9375 4.6875H67.9781C74.4375 4.6875 79.6875 9.94688 79.6875 16.3875C79.6875 16.6687 79.6641 16.95 79.6125 17.2266L75.9281 37.5H95.0578C103.055 37.5 108.844 44.1328 107.658 51.9844C107.559 53.1 107.292 54.9891 106.753 57.6516C105.83 62.2547 104.372 67.7438 102.277 74.1188C102.056 74.7891 101.831 75.4547 101.606 76.1109C99.5906 81.9703 97.4203 87.0891 95.2406 91.4437C93.9516 94.0219 92.9156 95.8313 92.2641 96.8531C90.1125 100.486 85.4906 103.125 81.2578 103.125H9.375ZM32.8125 93.75H81.2578C82.1859 93.75 83.7562 92.8453 84.2016 92.0672L84.3328 91.8563C84.4266 91.7109 84.6422 91.35 84.9703 90.7875C85.5328 89.8078 86.1703 88.6266 86.8594 87.2438C88.8562 83.2547 90.8625 78.5156 92.7422 73.0594C92.9531 72.4453 93.1641 71.8219 93.3703 71.1937C95.3531 65.1656 96.7125 60.0375 97.5656 55.8C97.8562 54.3516 98.0625 53.1234 98.2031 52.1156C98.2781 51.5484 98.3156 51.2062 98.325 51.0844L98.3766 50.6578C98.7422 48.4641 97.3734 46.875 95.0578 46.875H70.3125C67.3875 46.875 65.1797 44.2266 65.7 41.3484L70.2937 16.0828C70.1391 14.9531 69.15 14.0625 67.9781 14.0625H63.9844L50.6672 44.0297C49.8937 45.9 48.4453 48.4547 46.2047 51.0281C45.15 52.2328 43.9969 53.3344 42.7406 54.3C42.1875 54.7219 41.6203 55.1156 41.0344 55.4766C38.7938 56.85 36.4219 57.7219 34.05 58.2C33.6141 58.2891 33.2016 58.3594 32.8125 58.4156V93.75ZM14.0625 93.75H23.4375V53.9062H14.0625V93.75Z" fill="white"/>
</mask>
<g mask="url(#mask0_1835_366)">
</g>
</svg>
