<svg width="52" height="32" viewBox="0 0 52 32" fill="none" xmlns="http://www.w3.org/2000/svg">
<path fill-rule="evenodd" clip-rule="evenodd" d="M2 22C1.448 22 1 21.552 1 21V10.5C1 9.948 1.448 9.5 2 9.5H6C6.528 9.5 6.96 9.909 6.997 10.426C7.242 10.365 7.483 10.268 7.706 10.131C7.773 10.09 7.837 10.046 7.9 9.998C8.058 9.876 8.209 9.732 8.349 9.571C8.536 9.357 8.695 9.125 8.825 8.894C8.901 8.76 8.947 8.663 8.963 8.623L12.086 1.594C12.247 1.233 12.605 1 13 1H14.502C15.88 1 17 2.122 17 3.496C17 3.556 16.995 3.616 16.984 3.675L16.198 8H20.279C21.985 8 23.22 9.415 22.967 11.09C22.946 11.328 22.889 11.731 22.774 12.299C22.577 13.281 22.266 14.452 21.819 15.812C21.772 15.955 21.724 16.097 21.676 16.237C21.246 17.487 20.783 18.579 20.318 19.508C20.043 20.058 19.822 20.444 19.683 20.662C19.224 21.437 18.238 22 17.335 22H2ZM7 20H17.335C17.533 20 17.868 19.807 17.963 19.641L17.991 19.596C18.011 19.565 18.057 19.488 18.127 19.368C18.247 19.159 18.383 18.907 18.53 18.612C18.956 17.761 19.384 16.75 19.785 15.586C19.83 15.455 19.875 15.322 19.919 15.188C20.342 13.902 20.632 12.808 20.814 11.904C20.876 11.595 20.92 11.333 20.95 11.118C20.966 10.997 20.974 10.924 20.976 10.898L20.987 10.807C21.065 10.339 20.773 10 20.279 10H15C14.376 10 13.905 9.435 14.016 8.821L14.996 3.431C14.963 3.19 14.752 3 14.502 3H13.65L10.809 9.393C10.644 9.792 10.335 10.337 9.857 10.886C9.632 11.143 9.386 11.378 9.118 11.584C9 11.674 8.879 11.758 8.754 11.835C8.276 12.128 7.77 12.314 7.264 12.416C7.171 12.435 7.083 12.45 7 12.462V20ZM3 20H5V11.5H3V20Z" fill="white"/>
<mask id="mask0_1828_273" style="mask-type:luminance" maskUnits="userSpaceOnUse" x="1" y="1" width="22" height="21">
<path fill-rule="evenodd" clip-rule="evenodd" d="M2 22C1.448 22 1 21.552 1 21V10.5C1 9.948 1.448 9.5 2 9.5H6C6.528 9.5 6.96 9.909 6.997 10.426C7.242 10.365 7.483 10.268 7.706 10.131C7.773 10.09 7.837 10.046 7.9 9.998C8.058 9.876 8.209 9.732 8.349 9.571C8.536 9.357 8.695 9.125 8.825 8.894C8.901 8.76 8.947 8.663 8.963 8.623L12.086 1.594C12.247 1.233 12.605 1 13 1H14.502C15.88 1 17 2.122 17 3.496C17 3.556 16.995 3.616 16.984 3.675L16.198 8H20.279C21.985 8 23.22 9.415 22.967 11.09C22.946 11.328 22.889 11.731 22.774 12.299C22.577 13.281 22.266 14.452 21.819 15.812C21.772 15.955 21.724 16.097 21.676 16.237C21.246 17.487 20.783 18.579 20.318 19.508C20.043 20.058 19.822 20.444 19.683 20.662C19.224 21.437 18.238 22 17.335 22H2ZM7 20H17.335C17.533 20 17.868 19.807 17.963 19.641L17.991 19.596C18.011 19.565 18.057 19.488 18.127 19.368C18.247 19.159 18.383 18.907 18.53 18.612C18.956 17.761 19.384 16.75 19.785 15.586C19.83 15.455 19.875 15.322 19.919 15.188C20.342 13.902 20.632 12.808 20.814 11.904C20.876 11.595 20.92 11.333 20.95 11.118C20.966 10.997 20.974 10.924 20.976 10.898L20.987 10.807C21.065 10.339 20.773 10 20.279 10H15C14.376 10 13.905 9.435 14.016 8.821L14.996 3.431C14.963 3.19 14.752 3 14.502 3H13.65L10.809 9.393C10.644 9.792 10.335 10.337 9.857 10.886C9.632 11.143 9.386 11.378 9.118 11.584C9 11.674 8.879 11.758 8.754 11.835C8.276 12.128 7.77 12.314 7.264 12.416C7.171 12.435 7.083 12.45 7 12.462V20ZM3 20H5V11.5H3V20Z" fill="white"/>
</mask>
<g mask="url(#mask0_1828_273)">
</g>
<path fill-rule="evenodd" clip-rule="evenodd" d="M29 9H44.335C45.238 9 46.224 9.563 46.683 10.338C46.822 10.556 47.043 10.942 47.318 11.493C47.783 12.421 48.246 13.513 48.676 14.763C48.724 14.903 48.772 15.045 48.819 15.188C49.266 16.548 49.577 17.719 49.774 18.701C49.889 19.269 49.946 19.672 49.967 19.91C50.22 21.585 48.985 23 47.279 23H43.198L43.984 27.325C43.995 27.384 44 27.444 44 27.504C44 28.878 42.88 30 41.502 30H40C39.605 30 39.247 29.767 39.086 29.406L35.963 22.377C35.947 22.337 35.901 22.24 35.825 22.106C35.695 21.875 35.536 21.643 35.349 21.429C35.209 21.268 35.058 21.124 34.9 21.002C34.837 20.954 34.773 20.91 34.706 20.869C34.483 20.732 34.242 20.635 33.997 20.574C33.96 21.091 33.528 21.5 33 21.5H29C28.448 21.5 28 21.052 28 20.5V10C28 9.448 28.448 9 29 9ZM34 11V18.538C34.083 18.55 34.171 18.565 34.264 18.584C34.77 18.686 35.276 18.872 35.754 19.165C35.879 19.242 36 19.326 36.118 19.416C36.386 19.622 36.632 19.857 36.857 20.114C37.335 20.663 37.644 21.208 37.809 21.607L40.65 28H41.502C41.752 28 41.963 27.81 41.996 27.569L41.016 22.179C40.905 21.565 41.376 21 42 21H47.279C47.773 21 48.065 20.661 47.987 20.193L47.976 20.102C47.974 20.076 47.966 20.003 47.95 19.882C47.92 19.667 47.876 19.405 47.814 19.096C47.632 18.192 47.342 17.098 46.919 15.812C46.875 15.678 46.83 15.545 46.785 15.414C46.384 14.25 45.956 13.239 45.53 12.388C45.383 12.093 45.247 11.841 45.127 11.632C45.057 11.512 45.011 11.435 44.991 11.404L44.963 11.359C44.868 11.193 44.533 11 44.335 11H34ZM30 19.5H32V11H30V19.5Z" fill="white"/>
<mask id="mask1_1828_273" style="mask-type:luminance" maskUnits="userSpaceOnUse" x="28" y="9" width="22" height="21">
<path fill-rule="evenodd" clip-rule="evenodd" d="M29 9H44.335C45.238 9 46.224 9.563 46.683 10.338C46.822 10.556 47.043 10.942 47.318 11.493C47.783 12.421 48.246 13.513 48.676 14.763C48.724 14.903 48.772 15.045 48.819 15.188C49.266 16.548 49.577 17.719 49.774 18.701C49.889 19.269 49.946 19.672 49.967 19.91C50.22 21.585 48.985 23 47.279 23H43.198L43.984 27.325C43.995 27.384 44 27.444 44 27.504C44 28.878 42.88 30 41.502 30H40C39.605 30 39.247 29.767 39.086 29.406L35.963 22.377C35.947 22.337 35.901 22.24 35.825 22.106C35.695 21.875 35.536 21.643 35.349 21.429C35.209 21.268 35.058 21.124 34.9 21.002C34.837 20.954 34.773 20.91 34.706 20.869C34.483 20.732 34.242 20.635 33.997 20.574C33.96 21.091 33.528 21.5 33 21.5H29C28.448 21.5 28 21.052 28 20.5V10C28 9.448 28.448 9 29 9ZM34 11V18.538C34.083 18.55 34.171 18.565 34.264 18.584C34.77 18.686 35.276 18.872 35.754 19.165C35.879 19.242 36 19.326 36.118 19.416C36.386 19.622 36.632 19.857 36.857 20.114C37.335 20.663 37.644 21.208 37.809 21.607L40.65 28H41.502C41.752 28 41.963 27.81 41.996 27.569L41.016 22.179C40.905 21.565 41.376 21 42 21H47.279C47.773 21 48.065 20.661 47.987 20.193L47.976 20.102C47.974 20.076 47.966 20.003 47.95 19.882C47.92 19.667 47.876 19.405 47.814 19.096C47.632 18.192 47.342 17.098 46.919 15.812C46.875 15.678 46.83 15.545 46.785 15.414C46.384 14.25 45.956 13.239 45.53 12.388C45.383 12.093 45.247 11.841 45.127 11.632C45.057 11.512 45.011 11.435 44.991 11.404L44.963 11.359C44.868 11.193 44.533 11 44.335 11H34ZM30 19.5H32V11H30V19.5Z" fill="white"/>
</mask>
<g mask="url(#mask1_1828_273)">
</g>
</svg>
