<svg width="16" height="16" viewBox="0 0 16 16" xmlns="http://www.w3.org/2000/svg">
<g id="file">
<path id="Vector 48 (Stroke)" fill-rule="evenodd" clip-rule="evenodd" d="M4.09556 2.32181C4.43245 1.54776 5.23183 0.25 6.83333 0.25C8.57709 0.25 9.36875 1.77993 9.6613 2.54231C9.8834 3.12112 9.91667 3.71629 9.91667 4.21992V10.8333C9.91667 11.8919 9.05855 12.75 8 12.75C6.94145 12.75 6.08333 11.8919 6.08333 10.8333V4C6.08333 3.58579 6.41912 3.25 6.83333 3.25C7.24755 3.25 7.58333 3.58579 7.58333 4V10.8333C7.58333 11.0635 7.76988 11.25 8 11.25C8.23012 11.25 8.41667 11.0635 8.41667 10.8333V4.21992C8.41667 3.76571 8.38192 3.39516 8.26086 3.07969C7.98549 2.36206 7.53312 1.75 6.83333 1.75C6.19368 1.75 5.76095 2.25409 5.47094 2.92042C5.29113 3.33355 5.25 3.82395 5.25 4.42534V11.5C5.25 13.0188 6.48122 14.25 8 14.25C9.51878 14.25 10.75 13.0188 10.75 11.5V4C10.75 3.58579 11.0858 3.25 11.5 3.25C11.9142 3.25 12.25 3.58579 12.25 4V11.5C12.25 13.8472 10.3472 15.75 8 15.75C5.65279 15.75 3.75 13.8472 3.75 11.5V4.42534C3.75 3.79558 3.78405 3.03755 4.09556 2.32181Z" />
</g>
</svg>
