<svg width="16" height="16" viewBox="0 0 16 16" xmlns="http://www.w3.org/2000/svg">
<g>
<path fill-rule="evenodd" clip-rule="evenodd" d="M8 0C6.34315 0 5 1.34315 5 3V8.5C5 10.1569 6.34315 11.5 8 11.5C9.65685 11.5 11 10.1569 11 8.5V3C11 1.34315 9.65685 0 8 0ZM8 1.5C7.17157 1.5 6.5 2.17157 6.5 3V8.5C6.5 9.32843 7.17157 10 8 10C8.82843 10 9.5 9.32843 9.5 8.5V3C9.5 2.17157 8.82843 1.5 8 1.5Z" />
<path fill-rule="evenodd" clip-rule="evenodd" d="M3.75 8C3.75 7.58579 3.41421 7.25 3 7.25C2.58579 7.25 2.25 7.58579 2.25 8C2.25 10.9214 4.42873 13.334 7.25 13.7015V14.5H4C3.58579 14.5 3.25 14.8358 3.25 15.25C3.25 15.6642 3.58579 16 4 16H12C12.4142 16 12.75 15.6642 12.75 15.25C12.75 14.8358 12.4142 14.5 12 14.5H8.75V13.7015C11.5713 13.334 13.75 10.9214 13.75 8C13.75 7.58579 13.4142 7.25 13 7.25C12.5858 7.25 12.25 7.58579 12.25 8C12.25 10.3472 10.3472 12.25 8 12.25C5.65279 12.25 3.75 10.3472 3.75 8Z" />
</g>
</svg>
