<?xml version="1.0" encoding="UTF-8"?>
<svg width="32px" height="32px" viewBox="0 0 32 32" version="1.1" xmlns="http://www.w3.org/2000/svg" xmlns:xlink="http://www.w3.org/1999/xlink">
    <!-- Generator: Sketch 44.1 (41455) - http://www.bohemiancoding.com/sketch -->
    <title>cognigy_ai</title>
    <desc>Created with Sketch.</desc>
    <defs></defs>
    <g id="Symbols" stroke="none" stroke-width="1" fill="none" fill-rule="evenodd">
        <g id="Logo" fill="#FFFFFF">
            <g id="cognigy_ai">
                <path d="M4.26722131,10.2523997 C9.09423178,5.42538927 16.9204302,5.42538927 21.7474407,10.2523997 C26.5746791,15.0794102 26.5746791,22.9058366 21.7474407,27.7326191 C18.8022737,30.6780141 14.740218,31.8261301 10.9241057,31.177195 C16.4928214,33.0344213 22.8802849,31.7477199 27.3134212,27.3143557 C33.5620714,21.0657055 33.5620714,10.9350694 27.3134212,4.68641926 C21.0649989,-1.56223093 10.9341349,-1.56223093 4.68548472,4.68641926 C0.252120521,9.11978346 -1.03458081,15.507019 0.822873424,21.0757347 C0.173938315,17.2598504 1.32182634,13.1977947 4.26722131,10.2523997" id="Fill-13"></path>
                <path d="M5.25409502,16.9339924 C7.96357575,14.2245117 12.3565952,14.2245117 15.0660759,16.9339924 C17.7755567,19.6434732 17.7755567,24.0362647 15.0660759,26.7459734 C13.4126248,28.3991965 11.1325764,29.0435729 8.99065745,28.6791025 C12.1163502,29.7219118 15.7017907,28.9995812 18.1901731,26.5111988 C21.6976594,23.0037125 21.6976594,17.3171536 18.1901731,13.8096674 C14.6829147,10.302409 8.99612793,10.302409 5.48886958,13.8096674 C3.00048721,16.2982777 2.27815656,19.8832623 3.32073794,23.009183 C2.95649548,20.8672641 3.60087186,18.5872156 5.25409502,16.9339924" id="Fill-14"></path>
                <path d="M5.8059064,21.4219474 C7.12360709,20.1042467 9.2602835,20.1042467 10.5779842,21.4219474 C11.8956849,22.7398761 11.8956849,24.8763245 10.5779842,26.1942532 C9.77382435,26.9981851 8.66491346,27.3115977 7.62324382,27.1344911 C9.14358003,27.6414218 10.887066,27.2901717 12.0974086,26.080057 C13.8032851,24.3739526 13.8032851,21.6083995 12.0974086,19.902523 C10.3915322,18.1968744 7.62597906,18.1968744 5.92010257,19.902523 C4.70975995,21.1128656 4.35850987,22.8565795 4.86566849,24.3769157 C4.68833393,23.3352461 5.00174656,22.2261073 5.8059064,21.4219474" id="Fill-15"></path>
            </g>
        </g>
    </g>
</svg>