<svg width="32" height="32" viewBox="0 0 32 32" fill="none" xmlns="http://www.w3.org/2000/svg">
<rect width="32" height="32" fill="white"/>
<path fill-rule="evenodd" clip-rule="evenodd" d="M22.8179 14.0208L4.94094 6.42332L7.62296 14.0208H22.8179ZM22.8179 16.6908H7.62296L4.94094 24.2883L22.8179 16.6908ZM1.41387 4.45286C1.02806 3.35816 2.12676 2.32487 3.19476 2.7801L29.8948 14.1276C30.9788 14.5882 30.9788 16.1234 29.8948 16.584L3.19476 27.9315C2.12676 28.3867 1.02806 27.3534 1.41387 26.2587L5.26268 15.3558L1.41387 4.45286Z" fill="black"/>
<mask id="mask0_1828_21" style="mask-type:luminance" maskUnits="userSpaceOnUse" x="1" y="2" width="30" height="27">
<path fill-rule="evenodd" clip-rule="evenodd" d="M22.8179 14.0208L4.94094 6.42332L7.62296 14.0208H22.8179ZM22.8179 16.6908H7.62296L4.94094 24.2883L22.8179 16.6908ZM1.41387 4.45286C1.02806 3.35816 2.12676 2.32487 3.19476 2.7801L29.8948 14.1276C30.9788 14.5882 30.9788 16.1234 29.8948 16.584L3.19476 27.9315C2.12676 28.3867 1.02806 27.3534 1.41387 26.2587L5.26268 15.3558L1.41387 4.45286Z" fill="white"/>
</mask>
<g mask="url(#mask0_1828_21)">
</g>
</svg>
